<?xml version="1.0" encoding="UTF-8"?>
<svg viewBox="0 0 880 1100" xmlns="http://www.w3.org/2000/svg" font-family="-apple-system, 'Malgun Gothic', 'Apple SD Gothic Neo', sans-serif" fill="#10243f">
  <rect width="880" height="1100" fill="#ffffff"/>
  <defs>
    <marker id="aflow" markerWidth="9" markerHeight="9" refX="6.5" refY="3" orient="auto"><path d="M0,0 L7,3 L0,6 Z" fill="#2456A4"/></marker>
    <marker id="aloop" markerWidth="9" markerHeight="9" refX="6.5" refY="3" orient="auto"><path d="M0,0 L7,3 L0,6 Z" fill="#4FA47D"/></marker>
    <marker id="asup" markerWidth="8" markerHeight="8" refX="6" refY="3" orient="auto"><path d="M0,0 L6,3 L0,6 Z" fill="#7CC2A7"/></marker>
  </defs>
  <text x="440" y="28" text-anchor="middle" font-weight="700" font-size="13.5" fill="#2456A4">아래(데이터 원천) → 위(AI Agent) · RFP ①→⑤ 순</text>
  <rect x="22" y="44" width="150" height="124" rx="8" fill="#ffffff" stroke="#C7D6EA"/>
  <text x="32" y="62" font-weight="700" font-size="11">색 안내</text>
  <rect x="32" y="70" width="14" height="11" fill="#79C3E8"/><text x="52" y="79" font-size="10">원천·확보</text>
  <rect x="32" y="86" width="14" height="11" fill="#B7CDE6"/><text x="52" y="95" font-size="10">일반 단계</text>
  <rect x="32" y="102" width="14" height="11" fill="#3F9BD4"/><text x="52" y="111" font-size="10">품질 게이트</text>
  <rect x="32" y="118" width="14" height="11" fill="#2456A4"/><text x="52" y="127" font-size="10">핵심(카탈로그·AI)</text>
  <rect x="32" y="134" width="14" height="11" fill="#4FA47D"/><text x="52" y="143" font-size="10">평가·환류</text>
  <rect x="32" y="150" width="14" height="11" fill="#C2E6D6"/><text x="52" y="159" font-size="10">범위 외</text>
  <rect x="24" y="320" width="148" height="680" rx="10" fill="#C2E6D6" stroke="#7CC2A7" stroke-dasharray="5 4"/>
  <text x="98" y="344" text-anchor="middle" font-weight="700" font-size="11.5" fill="#1f4d3a">범위 외 · 받침</text>
  <text x="98" y="616" text-anchor="middle" font-weight="700" font-size="11" fill="#1f4d3a">F-1 데이터 운영관리</text>
  <text x="98" y="631" text-anchor="middle" font-size="9.5" fill="#1f4d3a">흐름 안 멈추게</text>
  <text x="98" y="700" text-anchor="middle" font-weight="700" font-size="11" fill="#1f4d3a">F-2 데이터 생애주기</text>
  <text x="98" y="715" text-anchor="middle" font-size="9.5" fill="#1f4d3a">얼마나 두고·버리나</text>
  <line x1="172" y1="400" x2="190" y2="400" stroke="#7CC2A7" stroke-width="1.6" stroke-dasharray="4 3" marker-end="url(#asup)"/>
  <line x1="172" y1="700" x2="190" y2="700" stroke="#7CC2A7" stroke-width="1.6" stroke-dasharray="4 3" marker-end="url(#asup)"/>
  <line x1="172" y1="930" x2="190" y2="930" stroke="#7CC2A7" stroke-width="1.6" stroke-dasharray="4 3" marker-end="url(#asup)"/>
  <rect x="310" y="180" width="200" height="92" rx="16" fill="#2456A4" stroke="#163a73" stroke-width="2"/>
  <text x="410" y="222" text-anchor="middle" font-weight="700" font-size="20" fill="#ffffff">AI Agent</text>
  <text x="410" y="248" text-anchor="middle" font-size="11" fill="#DCE8F5">RAG · 에이전트 서비스</text>
  <rect x="180" y="320" width="460" height="170" rx="10" fill="#EEF4FB" stroke="#6B9AD1"/>
  <text x="192" y="340" font-weight="700" font-size="13" fill="#2456A4">⑤ AI·RAG·Agent 연계</text>
  <text x="632" y="340" text-anchor="end" font-size="10" fill="#2f6b50" font-style="italic">= 실행 + 합성 + 평가·환류</text>
  <rect x="200" y="350" width="192" height="44" rx="8" fill="#B7CDE6" stroke="#6B9AD1"/>
  <text x="296" y="368" text-anchor="middle" font-weight="700" font-size="12">D-2 API/Tool 연계</text><text x="296" y="383" text-anchor="middle" font-size="9.5">부를 기능·규격</text>
  <rect x="406" y="350" width="192" height="44" rx="8" fill="#2456A4" stroke="#163a73"/>
  <text x="502" y="368" text-anchor="middle" font-weight="700" font-size="12" fill="#ffffff">D-3 Prompt/Harness</text><text x="502" y="383" text-anchor="middle" font-size="9.5" fill="#dce8f5">절차·판단 (지휘)</text>
  <rect x="200" y="404" width="128" height="44" rx="8" fill="#79C3E8" stroke="#3F9BD4"/>
  <text x="264" y="422" text-anchor="middle" font-weight="700" font-size="11" fill="#0b3a52">E-2 합성데이터</text><text x="264" y="437" text-anchor="middle" font-size="9.5" fill="#0b3a52">학습 보강</text>
  <rect x="338" y="404" width="128" height="44" rx="8" fill="#4FA47D" stroke="#2f6b50"/>
  <text x="402" y="422" text-anchor="middle" font-weight="700" font-size="11" fill="#ffffff">E-3 AI 평가</text><text x="402" y="437" text-anchor="middle" font-size="9.5" fill="#eafaf2">채점</text>
  <rect x="476" y="404" width="142" height="44" rx="8" fill="#4FA47D" stroke="#2f6b50"/>
  <text x="547" y="422" text-anchor="middle" font-weight="700" font-size="11" fill="#ffffff">E-4 Feedback</text><text x="547" y="437" text-anchor="middle" font-size="9.5" fill="#eafaf2">원인 라우팅</text>
  <rect x="180" y="510" width="460" height="118" rx="10" fill="#EEF4FB" stroke="#6B9AD1"/>
  <text x="192" y="530" font-weight="700" font-size="13" fill="#2456A4">④ 품질·계보·감사</text>
  <text x="632" y="530" text-anchor="end" font-size="10" fill="#2f6b50" font-style="italic">= 믿고 쓰기 게이트</text>
  <rect x="330" y="544" width="176" height="46" rx="8" fill="#3F9BD4" stroke="#2456A4"/>
  <text x="418" y="564" text-anchor="middle" font-weight="700" font-size="12" fill="#ffffff">C-2 데이터 품질 관리</text><text x="418" y="579" text-anchor="middle" font-size="9.5" fill="#eaf3fb">쓸 수 있나 판정</text>
  <rect x="190" y="540" width="128" height="38" rx="7" fill="#B7CDE6" stroke="#6B9AD1"/>
  <text x="254" y="557" text-anchor="middle" font-weight="700" font-size="10.5">C-1 Observability</text><text x="254" y="571" text-anchor="middle" font-size="9">실시간 근거</text>
  <rect x="190" y="582" width="128" height="38" rx="7" fill="#B7CDE6" stroke="#6B9AD1"/>
  <text x="254" y="599" text-anchor="middle" font-weight="700" font-size="10.5">C-3 계통 Lineage</text><text x="254" y="613" text-anchor="middle" font-size="9">이력 근거</text>
  <rect x="516" y="544" width="116" height="46" rx="7" fill="#C2E6D6" stroke="#7CC2A7"/>
  <text x="574" y="564" text-anchor="middle" font-weight="700" font-size="10.5" fill="#1f4d3a">F-4 권한·보안</text><text x="574" y="579" text-anchor="middle" font-size="9" fill="#1f4d3a">접근·마스킹</text>
  <line x1="318" y1="558" x2="330" y2="562" stroke="#2456A4" stroke-width="1.5" marker-end="url(#aflow)"/>
  <line x1="318" y1="600" x2="330" y2="576" stroke="#2456A4" stroke-width="1.5" marker-end="url(#aflow)"/>
  <line x1="516" y1="567" x2="506" y2="567" stroke="#7CC2A7" stroke-width="1.5" stroke-dasharray="4 3" marker-end="url(#asup)"/>
  <rect x="180" y="648" width="460" height="102" rx="10" fill="#EEF4FB" stroke="#6B9AD1"/>
  <text x="192" y="668" font-weight="700" font-size="13" fill="#2456A4">③ 어노테이션·온톨로지</text>
  <text x="632" y="668" text-anchor="end" font-size="10" fill="#2f6b50" font-style="italic">= 가공(주석) + 온톨로지</text>
  <rect x="210" y="684" width="190" height="50" rx="8" fill="#B7CDE6" stroke="#6B9AD1"/>
  <text x="305" y="705" text-anchor="middle" font-weight="700" font-size="12">B-2 데이터 해설·주석</text><text x="305" y="720" text-anchor="middle" font-size="9.5">의미(라벨) 부여</text>
  <rect x="420" y="684" width="190" height="50" rx="8" fill="#B7CDE6" stroke="#6B9AD1"/>
  <text x="515" y="705" text-anchor="middle" font-weight="700" font-size="12">B-3 온톨로지</text><text x="515" y="720" text-anchor="middle" font-size="9.5">개념 관계</text>
  <rect x="180" y="770" width="460" height="108" rx="10" fill="#EEF4FB" stroke="#6B9AD1"/>
  <text x="192" y="790" font-weight="700" font-size="13" fill="#2456A4">② 메타·카탈로그·글로서리</text>
  <text x="632" y="790" text-anchor="end" font-size="10" fill="#2f6b50" font-style="italic">= 찾기·의미</text>
  <rect x="190" y="806" width="140" height="50" rx="8" fill="#B7CDE6" stroke="#6B9AD1"/>
  <text x="260" y="827" text-anchor="middle" font-weight="700" font-size="10.5">A-3 비즈니스 Glossary</text><text x="260" y="842" text-anchor="middle" font-size="9.5">용어 뜻</text>
  <rect x="342" y="806" width="140" height="50" rx="8" fill="#B7CDE6" stroke="#6B9AD1"/>
  <text x="412" y="827" text-anchor="middle" font-weight="700" font-size="12">A-2 메타데이터</text><text x="412" y="842" text-anchor="middle" font-size="9.5">자산 속성</text>
  <rect x="494" y="806" width="138" height="50" rx="8" fill="#2456A4" stroke="#163a73"/>
  <text x="563" y="827" text-anchor="middle" font-weight="700" font-size="11" fill="#ffffff">A-1 데이터 카탈로그</text><text x="563" y="842" text-anchor="middle" font-size="9.5" fill="#dce8f5">소재·위치</text>
  <line x1="330" y1="831" x2="342" y2="831" stroke="#2456A4" stroke-width="1.5" marker-end="url(#aflow)"/>
  <line x1="482" y1="831" x2="494" y2="831" stroke="#2456A4" stroke-width="1.5" marker-end="url(#aflow)"/>
  <rect x="180" y="898" width="460" height="102" rx="10" fill="#EEF4FB" stroke="#6B9AD1"/>
  <text x="192" y="918" font-weight="700" font-size="13" fill="#2456A4">① 수집·전처리</text>
  <text x="632" y="918" text-anchor="end" font-size="10" fill="#2f6b50" font-style="italic">= 원천 확보 + 가공</text>
  <rect x="190" y="932" width="140" height="50" rx="8" fill="#79C3E8" stroke="#3F9BD4"/>
  <text x="260" y="953" text-anchor="middle" font-weight="700" font-size="11" fill="#0b3a52">F-3 데이터 디지털화</text><text x="260" y="968" text-anchor="middle" font-size="9.5" fill="#0b3a52">종이→디지털</text>
  <rect x="342" y="932" width="140" height="50" rx="8" fill="#79C3E8" stroke="#3F9BD4"/>
  <text x="412" y="953" text-anchor="middle" font-weight="700" font-size="10.5" fill="#0b3a52">D-1 Physical 데이터</text><text x="412" y="968" text-anchor="middle" font-size="9.5" fill="#0b3a52">현장 신호</text>
  <rect x="494" y="932" width="138" height="50" rx="8" fill="#B7CDE6" stroke="#6B9AD1"/>
  <text x="563" y="953" text-anchor="middle" font-weight="700" font-size="11">B-1 데이터 전처리</text><text x="563" y="968" text-anchor="middle" font-size="9.5">구조화 변환</text>
  <rect x="24" y="1000" width="832" height="58" rx="10" fill="#79C3E8" stroke="#3F9BD4" stroke-width="1.5"/>
  <text x="440" y="1026" text-anchor="middle" font-weight="700" font-size="16" fill="#0b3a52">데이터 원천</text>
  <text x="440" y="1046" text-anchor="middle" font-size="11" fill="#0b3a52">현장·설비 센서 · 문서·도면 · 시스템 기록 등</text>
  <line x1="410" y1="998" x2="410" y2="982" stroke="#2456A4" stroke-width="2.6" marker-end="url(#aflow)"/>
  <line x1="410" y1="896" x2="410" y2="880" stroke="#2456A4" stroke-width="2.6" marker-end="url(#aflow)"/>
  <line x1="410" y1="768" x2="410" y2="752" stroke="#2456A4" stroke-width="2.6" marker-end="url(#aflow)"/>
  <line x1="410" y1="646" x2="410" y2="630" stroke="#2456A4" stroke-width="2.6" marker-end="url(#aflow)"/>
  <line x1="410" y1="508" x2="410" y2="492" stroke="#2456A4" stroke-width="2.6" marker-end="url(#aflow)"/>
  <text x="418" y="504" font-size="10.5" fill="#2456A4">품질 통과만 ↑</text>
  <line x1="410" y1="318" x2="410" y2="274" stroke="#2456A4" stroke-width="2.6" marker-end="url(#aflow)"/>
  <rect x="700" y="372" width="156" height="54" rx="8" fill="#B7CDE6" stroke="#7CC2A7" stroke-dasharray="5 4"/>
  <text x="778" y="393" text-anchor="middle" font-weight="700" font-size="11">E-1 데이터 Product화</text><text x="778" y="409" text-anchor="middle" font-size="9.5">재사용 상품 (범위 외)</text>
  <path d="M700,398 L512,250" fill="none" stroke="#6B9AD1" stroke-width="1.8" stroke-dasharray="5 4" marker-end="url(#aflow)"/>
  <text x="640" y="318" text-anchor="middle" font-size="10.5" fill="#2456A4" transform="rotate(-38 640 318)">재사용 공급</text>
  <path d="M510,226 L866,226 L866,946 L642,946" fill="none" stroke="#4FA47D" stroke-width="2.6" marker-end="url(#aloop)"/>
  <text x="744" y="936" text-anchor="middle" font-size="10.5" fill="#2f6b50">환류 — ⑤ 평가·Feedback이 결과를 원인 주제(①·③·④)로 되돌림</text>
</svg>
