<svg xmlns="http://www.w3.org/2000/svg" viewBox="0 0 1020 790" font-family="-apple-system,'Malgun Gothic','Apple SD Gothic Neo',sans-serif" fill="#10243f">
<rect width="1020" height="790" fill="#ffffff"/>
<defs>
<marker id="arrS" markerWidth="9" markerHeight="9" refX="6.5" refY="4" orient="auto"><path d="M1,1 L7,4 L1,7" fill="none" stroke="#6B9AD1" stroke-width="1.5"/></marker>
</defs>

<text x="36" y="40" font-size="21" font-weight="700" fill="#163a73">0단계 — RFP 5영역을 14개 솔루션 카테고리로 나눈다</text>
<text x="36" y="64" font-size="13" fill="#5b6b7d">한 제품이 여러 주제를 함께 커버하면 <tspan font-weight="700" fill="#2f6b50">통합(1개)</tspan>, 한 제품으로 다 못 하면 <tspan font-weight="700" fill="#2456A4">분리(N개)</tspan>. 이렇게 나온 카테고리가 조사·채점 단위다.</text>

<!-- column headers -->
<text x="154" y="88" font-size="12" font-weight="700" fill="#5b6b7d" text-anchor="middle">RFP 5영역</text>
<text x="360" y="88" font-size="12" font-weight="700" fill="#5b6b7d" text-anchor="middle">통합 / 분리</text>
<text x="725" y="88" font-size="12" font-weight="700" fill="#5b6b7d" text-anchor="middle">솔루션 카테고리 (조사 단위)</text>

<!-- ================= ① 수집·전처리 (3) ================= -->
<rect x="36" y="96" width="236" height="130" rx="9" fill="#2456A4" stroke="#163a73" stroke-width="1.5"/>
<text x="154" y="156" font-size="14.5" font-weight="700" fill="#ffffff" text-anchor="middle">① 데이터 수집·전처리</text>
<text x="154" y="178" font-size="11.5" fill="#dbe6f5" text-anchor="middle">원천별로 시장이 달라</text>
<line x1="272" y1="161" x2="300" y2="161" stroke="#6B9AD1" stroke-width="1.4"/>
<rect x="300" y="144" width="120" height="34" rx="17" fill="#3F9BD4" stroke="#2456A4" stroke-width="1.3"/>
<text x="360" y="166" font-size="12.5" font-weight="700" fill="#ffffff" text-anchor="middle">3개로 분리</text>
<!-- cards -->
<line x1="420" y1="161" x2="466" y2="115" stroke="#6B9AD1" stroke-width="1.3" marker-end="url(#arrS)"/>
<line x1="420" y1="161" x2="466" y2="161" stroke="#6B9AD1" stroke-width="1.3" marker-end="url(#arrS)"/>
<line x1="420" y1="161" x2="466" y2="207" stroke="#6B9AD1" stroke-width="1.3" marker-end="url(#arrS)"/>
<rect x="470" y="96" width="510" height="38" rx="7" fill="#B7CDE6" stroke="#6B9AD1" stroke-width="1.2"/>
<text x="486" y="120" font-size="13" font-weight="600">문서 파싱·전처리 <tspan fill="#5b6b7d" font-weight="400" font-size="11">(B-1 데이터 전처리)</tspan></text>
<rect x="470" y="142" width="510" height="38" rx="7" fill="#B7CDE6" stroke="#6B9AD1" stroke-width="1.2"/>
<text x="486" y="166" font-size="13" font-weight="600">OCR·음성인식(STT) 엔진 <tspan fill="#5b6b7d" font-weight="400" font-size="11">(F-3 데이터 디지털화)</tspan></text>
<rect x="470" y="188" width="510" height="38" rx="7" fill="#B7CDE6" stroke="#6B9AD1" stroke-width="1.2"/>
<text x="486" y="212" font-size="13" font-weight="600">산업 Historian·시계열 플랫폼 <tspan fill="#5b6b7d" font-weight="400" font-size="11">(D-1 Physical 데이터)</tspan></text>

<!-- ================= ② 메타·카탈로그·글로서리 (통합 1) ================= -->
<rect x="36" y="234" width="236" height="38" rx="9" fill="#2456A4" stroke="#163a73" stroke-width="1.5"/>
<text x="154" y="258" font-size="14" font-weight="700" fill="#ffffff" text-anchor="middle">② 메타·카탈로그·글로서리</text>
<line x1="272" y1="253" x2="300" y2="253" stroke="#7CC2A7" stroke-width="1.4"/>
<rect x="300" y="236" width="120" height="34" rx="17" fill="#4FA47D" stroke="#2f6b50" stroke-width="1.3"/>
<text x="360" y="258" font-size="12.5" font-weight="700" fill="#ffffff" text-anchor="middle">통합 1개</text>
<line x1="420" y1="253" x2="466" y2="253" stroke="#7CC2A7" stroke-width="1.4" marker-end="url(#arrS)"/>
<rect x="470" y="234" width="510" height="38" rx="7" fill="#3F9BD4" stroke="#163a73" stroke-width="1.6"/>
<text x="486" y="258" font-size="13" font-weight="700" fill="#ffffff">★ 데이터 카탈로그 플랫폼 <tspan fill="#dbe6f5" font-weight="400" font-size="11">(A-1 카탈로그·A-2 메타데이터·A-3 Glossary)</tspan></text>

<!-- ================= ③ 어노테이션·온톨로지 (2) ================= -->
<rect x="36" y="280" width="236" height="84" rx="9" fill="#2456A4" stroke="#163a73" stroke-width="1.5"/>
<text x="154" y="326" font-size="14" font-weight="700" fill="#ffffff" text-anchor="middle">③ 어노테이션·온톨로지</text>
<line x1="272" y1="322" x2="300" y2="322" stroke="#6B9AD1" stroke-width="1.4"/>
<rect x="300" y="305" width="120" height="34" rx="17" fill="#3F9BD4" stroke="#2456A4" stroke-width="1.3"/>
<text x="360" y="327" font-size="12.5" font-weight="700" fill="#ffffff" text-anchor="middle">2개로 분리</text>
<line x1="420" y1="322" x2="466" y2="299" stroke="#6B9AD1" stroke-width="1.3" marker-end="url(#arrS)"/>
<line x1="420" y1="322" x2="466" y2="345" stroke="#6B9AD1" stroke-width="1.3" marker-end="url(#arrS)"/>
<rect x="470" y="280" width="510" height="38" rx="7" fill="#B7CDE6" stroke="#6B9AD1" stroke-width="1.2"/>
<text x="486" y="304" font-size="13" font-weight="600">라벨링·어노테이션 도구 <tspan fill="#5b6b7d" font-weight="400" font-size="11">(B-2 데이터 해설·주석)</tspan></text>
<rect x="470" y="326" width="510" height="38" rx="7" fill="#B7CDE6" stroke="#6B9AD1" stroke-width="1.2"/>
<text x="486" y="350" font-size="13" font-weight="600">그래프DB·지식그래프 플랫폼 <tspan fill="#5b6b7d" font-weight="400" font-size="11">(B-3 온톨로지)</tspan></text>

<!-- ================= ④ 품질·계보·감사 (4) ================= -->
<rect x="36" y="372" width="236" height="176" rx="9" fill="#2456A4" stroke="#163a73" stroke-width="1.5"/>
<text x="154" y="465" font-size="14.5" font-weight="700" fill="#ffffff" text-anchor="middle">④ 품질·계보·감사</text>
<line x1="272" y1="460" x2="300" y2="460" stroke="#6B9AD1" stroke-width="1.4"/>
<rect x="300" y="443" width="120" height="34" rx="17" fill="#3F9BD4" stroke="#2456A4" stroke-width="1.3"/>
<text x="360" y="465" font-size="12.5" font-weight="700" fill="#ffffff" text-anchor="middle">4개로 분리</text>
<line x1="420" y1="460" x2="466" y2="391" stroke="#6B9AD1" stroke-width="1.3" marker-end="url(#arrS)"/>
<line x1="420" y1="460" x2="466" y2="437" stroke="#6B9AD1" stroke-width="1.3" marker-end="url(#arrS)"/>
<line x1="420" y1="460" x2="466" y2="483" stroke="#6B9AD1" stroke-width="1.3" marker-end="url(#arrS)"/>
<line x1="420" y1="460" x2="466" y2="529" stroke="#6B9AD1" stroke-width="1.3" marker-end="url(#arrS)"/>
<rect x="470" y="372" width="510" height="38" rx="7" fill="#B7CDE6" stroke="#6B9AD1" stroke-width="1.2"/>
<text x="486" y="396" font-size="13" font-weight="600">품질·옵저버빌리티 도구 <tspan fill="#5b6b7d" font-weight="400" font-size="11">(C-2 데이터 품질·C-1 Observability)</tspan></text>
<rect x="470" y="418" width="510" height="38" rx="7" fill="#B7CDE6" stroke="#6B9AD1" stroke-width="1.2"/>
<text x="486" y="442" font-size="13" font-weight="600">계보(Lineage) 도구 <tspan fill="#5b6b7d" font-weight="400" font-size="11">(C-3 데이터 계통)</tspan></text>
<rect x="470" y="464" width="510" height="38" rx="7" fill="#B7CDE6" stroke="#6B9AD1" stroke-width="1.2"/>
<text x="486" y="488" font-size="13" font-weight="600">접근통제·보안 거버넌스 <tspan fill="#5b6b7d" font-weight="400" font-size="11">(F-4 데이터 권한)</tspan></text>
<rect x="470" y="510" width="510" height="38" rx="7" fill="#B7CDE6" stroke="#6B9AD1" stroke-width="1.2"/>
<text x="486" y="534" font-size="13" font-weight="600">비식별·마스킹 솔루션 <tspan fill="#5b6b7d" font-weight="400" font-size="11">(F-4 비식별)</tspan></text>

<!-- ================= ⑤ AI·RAG·Agent 연계 (4) ================= -->
<rect x="36" y="556" width="236" height="176" rx="9" fill="#2456A4" stroke="#163a73" stroke-width="1.5"/>
<text x="154" y="644" font-size="14" font-weight="700" fill="#ffffff" text-anchor="middle">⑤ AI·RAG·Agent 연계</text>
<line x1="272" y1="644" x2="300" y2="644" stroke="#6B9AD1" stroke-width="1.4"/>
<rect x="300" y="627" width="120" height="34" rx="17" fill="#3F9BD4" stroke="#2456A4" stroke-width="1.3"/>
<text x="360" y="649" font-size="12.5" font-weight="700" fill="#ffffff" text-anchor="middle">4개로 분리</text>
<line x1="420" y1="644" x2="466" y2="575" stroke="#6B9AD1" stroke-width="1.3" marker-end="url(#arrS)"/>
<line x1="420" y1="644" x2="466" y2="621" stroke="#6B9AD1" stroke-width="1.3" marker-end="url(#arrS)"/>
<line x1="420" y1="644" x2="466" y2="667" stroke="#6B9AD1" stroke-width="1.3" marker-end="url(#arrS)"/>
<line x1="420" y1="644" x2="466" y2="713" stroke="#6B9AD1" stroke-width="1.3" marker-end="url(#arrS)"/>
<rect x="470" y="556" width="510" height="38" rx="7" fill="#B7CDE6" stroke="#6B9AD1" stroke-width="1.2"/>
<text x="486" y="580" font-size="13" font-weight="600">API·MCP 레지스트리/게이트웨이 <tspan fill="#5b6b7d" font-weight="400" font-size="11">(D-2 API/Tool 연계 데이터)</tspan></text>
<rect x="470" y="602" width="510" height="38" rx="7" fill="#B7CDE6" stroke="#6B9AD1" stroke-width="1.2"/>
<text x="486" y="626" font-size="13" font-weight="600">프롬프트 관리·버전관리 도구 <tspan fill="#5b6b7d" font-weight="400" font-size="11">(D-3 Prompt/Harness 자산화)</tspan></text>
<rect x="470" y="648" width="510" height="38" rx="7" fill="#B7CDE6" stroke="#6B9AD1" stroke-width="1.2"/>
<text x="486" y="672" font-size="13" font-weight="600">AI 평가·피드백 도구 <tspan fill="#5b6b7d" font-weight="400" font-size="11">(E-3 평가 데이터·E-4 Feedback Loop)</tspan></text>
<rect x="470" y="694" width="510" height="38" rx="7" fill="#B7CDE6" stroke="#6B9AD1" stroke-width="1.2"/>
<text x="486" y="718" font-size="13" font-weight="600">합성데이터 생성 플랫폼 <tspan fill="#5b6b7d" font-weight="400" font-size="11">(E-2 합성데이터)</tspan></text>

<!-- footer note -->
<text x="36" y="762" font-size="12.5" fill="#5b6b7d">합계 <tspan font-weight="700" fill="#10243f">14개 카테고리</tspan> — 필수 코어 2(②·문서파싱) · 제조 1(산업 Historian) · 선택 11.  RFP에 억지로 안 맞는 <tspan font-weight="600">E-1·F-1·F-2 3주제는 제외</tspan>(별도 목록 생기면 추가).</text>
</svg>
