<svg viewBox="0 0 880 252" xmlns="http://www.w3.org/2000/svg" font-family="-apple-system, 'Malgun Gothic', 'Apple SD Gothic Neo', sans-serif">
  <rect width="880" height="252" fill="#ffffff"/>
  <text x="24" y="32" font-size="17" font-weight="700" fill="#10243f">Excel 설비 점검표 — 전처리 전 모습 (가상)</text>

  <!-- legend : 파란=현상, 녹색=가이드 -->
  <g font-size="11" font-weight="700">
    <line x1="600" y1="28" x2="622" y2="28" stroke="#2456A4" stroke-width="3"/>
    <text x="628" y="32" fill="#2456A4">현상(문서 특징)</text>
    <line x1="740" y1="28" x2="762" y2="28" stroke="#4FA47D" stroke-width="3"/>
    <text x="768" y="32" fill="#2f6b50">가이드(전처리)</text>
  </g>

  <!-- column letters -->
  <g font-size="11" fill="#6b7785" text-anchor="middle">
    <rect x="40" y="54" width="430" height="18" fill="#eef2f7" stroke="#c9d4e0"/>
    <text x="95" y="67">A</text><text x="195" y="67">B</text><text x="270" y="67">C</text><text x="350" y="67">D</text><text x="430" y="67">E</text>
  </g>

  <!-- header row -->
  <g font-size="12.5" fill="#10243f" text-anchor="middle">
    <rect x="40" y="72" width="110" height="30" fill="#DCE8F5" stroke="#6B9AD1"/>
    <rect x="150" y="72" width="90" height="30" fill="#DCE8F5" stroke="#6B9AD1"/>
    <rect x="240" y="72" width="80" height="30" fill="#DCE8F5" stroke="#6B9AD1"/>
    <rect x="320" y="72" width="80" height="30" fill="#DCE8F5" stroke="#6B9AD1"/>
    <rect x="400" y="72" width="70" height="30" fill="#DCE8F5" stroke="#6B9AD1"/>
    <text x="95" y="92" font-weight="700">설비</text>
    <text x="195" y="92" font-weight="700">카테고리</text>
    <text x="280" y="92" font-weight="700">1주차</text>
    <text x="360" y="92" font-weight="700">2주차</text>
    <text x="435" y="92" font-weight="700">3주차</text>
  </g>

  <!-- data rows -->
  <g font-size="12.5" fill="#10243f" text-anchor="middle">
    <!-- 설비 (row1+2) -->
    <rect x="40" y="102" width="110" height="34" fill="#fff" stroke="#c9d4e0"/>
    <rect x="40" y="136" width="110" height="34" fill="#fff" stroke="#c9d4e0"/>
    <text x="95" y="124">CNC-01</text>
    <text x="95" y="158">CNC-01</text>
    <!-- 카테고리 병합 (윤활, spans 2 rows) -->
    <rect x="150" y="102" width="90" height="68" fill="#fffbe6" stroke="#e0b400"/>
    <text x="195" y="140" font-weight="700">윤활</text>
    <!-- 주차 cells row1 -->
    <rect x="240" y="102" width="80" height="34" fill="#fff" stroke="#c9d4e0"/><text x="280" y="124">정상</text>
    <rect x="320" y="102" width="80" height="34" fill="#fff" stroke="#c9d4e0"/><text x="360" y="124">정상</text>
    <rect x="400" y="102" width="70" height="34" fill="#f7d4d4" stroke="#d64545"/><text x="435" y="124" fill="#b32020" font-weight="700">이상</text>
    <!-- 주차 cells row2 -->
    <rect x="240" y="136" width="80" height="34" fill="#fff" stroke="#c9d4e0"/><text x="280" y="158">정상</text>
    <rect x="320" y="136" width="80" height="34" fill="#fff" stroke="#c9d4e0"/><text x="360" y="158">정상</text>
    <rect x="400" y="136" width="70" height="34" fill="#fff" stroke="#c9d4e0"/><text x="435" y="158">정상</text>
  </g>

  <!-- annotations : 파란=현상, 녹색=가이드 -->
  <g font-size="12">
    <line x1="195" y1="170" x2="160" y2="196" stroke="#2456A4" stroke-width="1.3"/>
    <text x="40" y="214" fill="#2456A4" font-weight="700">① 병합셀 — 아래 칸이 비어 추출 시 빈값</text>
    <text x="40" y="231" fill="#2f6b50">→ 위 값으로 채워 내림</text>
  </g>
  <g font-size="12">
    <line x1="360" y1="72" x2="540" y2="116" stroke="#2456A4" stroke-width="1.3"/>
    <text x="540" y="118" fill="#2456A4" font-weight="700">② 주차가 옆(열)으로 펼쳐짐</text>
    <text x="540" y="135" fill="#2f6b50">→ 한 줄=한 건 되게 세로로 편다</text>
  </g>
  <g font-size="12">
    <line x1="435" y1="119" x2="540" y2="168" stroke="#2456A4" stroke-width="1.3"/>
    <text x="540" y="170" fill="#2456A4" font-weight="700">③ '이상'이 색으로만 표시 — 글자엔 없음</text>
    <text x="540" y="187" fill="#2f6b50">→ 별도 컬럼으로 데이터화</text>
  </g>

</svg>
