<svg viewBox="0 0 760 300" xmlns="http://www.w3.org/2000/svg" font-family="-apple-system, 'Malgun Gothic', 'Apple SD Gothic Neo', sans-serif">
  <rect width="760" height="300" fill="#ffffff"/>
  <text x="24" y="30" font-size="17" font-weight="700" fill="#10243f">PDF 품질 성적서 — 전처리 전 모습 (가상)</text>

  <!-- page -->
  <rect x="40" y="48" width="430" height="232" fill="#ffffff" stroke="#c9d4e0" stroke-width="1.5"/>
  <rect x="40" y="48" width="430" height="232" fill="none" stroke="#e8edf3"/>

  <!-- repeated header / page no (to be removed) -->
  <text x="56" y="70" font-size="10.5" fill="#9aa6b2">QualityDept Confidential</text>
  <text x="454" y="70" font-size="10.5" fill="#9aa6b2" text-anchor="end">p.3</text>
  <line x1="56" y1="76" x2="454" y2="76" stroke="#e8edf3"/>

  <!-- title block -->
  <text x="255" y="104" font-size="15" font-weight="700" fill="#10243f" text-anchor="middle">품질 검사 성적서</text>
  <text x="255" y="124" font-size="11.5" fill="#3a4a55" text-anchor="middle">문서번호 QR-2026-0481 · 2026-06-15</text>

  <!-- bordered table : 3 rows matching body example -->
  <g font-size="11" fill="#10243f" text-anchor="middle">
    <rect x="64" y="150" width="382" height="26" fill="#DCE8F5" stroke="#6B9AD1"/>
    <line x1="150" y1="150" x2="150" y2="254" stroke="#6B9AD1"/>
    <line x1="236" y1="150" x2="236" y2="254" stroke="#6B9AD1"/>
    <line x1="330" y1="150" x2="330" y2="254" stroke="#6B9AD1"/>
    <line x1="392" y1="150" x2="392" y2="254" stroke="#6B9AD1"/>
    <text x="107" y="167" font-weight="700">공정</text>
    <text x="193" y="167" font-weight="700">검사항목</text>
    <text x="283" y="167" font-weight="700">합격기준</text>
    <text x="361" y="167" font-weight="700">실측</text>
    <text x="419" y="167" font-weight="700">판정</text>
    <rect x="64" y="176" width="382" height="78" fill="none" stroke="#6B9AD1"/>
    <line x1="64" y1="202" x2="446" y2="202" stroke="#d7e0ea"/>
    <line x1="64" y1="228" x2="446" y2="228" stroke="#d7e0ea"/>
    <g text-anchor="middle">
      <text x="107" y="193">용접부</text><text x="193" y="193">외관</text><text x="283" y="193">균열 없음</text><text x="361" y="193">균열 없음</text><text x="419" y="193">합격</text>
      <text x="107" y="219">용접부</text><text x="193" y="219">치수</text><text x="283" y="219">100±0.1</text><text x="361" y="219">100.04</text><text x="419" y="219">합격</text>
      <text x="107" y="245">도장</text><text x="193" y="245">두께</text><text x="283" y="245">80~120㎛</text><text x="361" y="245">95</text><text x="419" y="245">합격</text>
    </g>
  </g>

  <!-- annotations -->
  <g font-size="12">
    <line x1="454" y1="70" x2="520" y2="92" stroke="#9aa6b2" stroke-width="1.2"/>
    <text x="500" y="92" fill="#6b7785" font-weight="700">머리글·쪽번호</text>
    <text x="500" y="108" fill="#3a4a55">매 페이지 반복 → 본문서 제거</text>

    <line x1="255" y1="104" x2="540" y2="150" stroke="#2456A4" stroke-width="1.2"/>
    <text x="500" y="152" fill="#2456A4" font-weight="700">제목 블록</text>
    <text x="500" y="168" fill="#3a4a55">레이아웃 인식으로 따로 분류</text>

    <line x1="330" y1="219" x2="540" y2="234" stroke="#4FA47D" stroke-width="1.3"/>
    <text x="500" y="236" fill="#2f6b50" font-weight="700">표(테두리 격자)</text>
    <text x="500" y="252" fill="#3a4a55">단순 추출 시 한 줄로 뭉개짐 →</text>
    <text x="500" y="268" fill="#3a4a55">격자 인식으로 행·열 복원</text>
  </g>

</svg>
