<svg viewBox="0 0 760 350" xmlns="http://www.w3.org/2000/svg" font-family="-apple-system, 'Malgun Gothic', 'Apple SD Gothic Neo', sans-serif">
  <rect width="760" height="350" fill="#ffffff"/>
  <text x="24" y="30" font-size="17" font-weight="700" fill="#10243f">Word·HWP 작업표준서(SOP) — 전처리 전 모습 (가상)</text>

  <!-- document page -->
  <rect x="40" y="50" width="400" height="282" fill="#ffffff" stroke="#c9d4e0" stroke-width="1.5"/>

  <!-- headings: visually styled, with faint style tags -->
  <text x="62" y="86" font-size="16" font-weight="700" fill="#10243f">용접 작업표준</text>
  <text x="430" y="86" font-size="9" fill="#b0bcc8" text-anchor="end">[제목1]</text>

  <text x="62" y="118" font-size="13.5" font-weight="700" fill="#1f3a63">2. 본작업</text>
  <text x="430" y="118" font-size="9" fill="#b0bcc8" text-anchor="end">[제목2]</text>

  <text x="62" y="146" font-size="12.5" font-weight="700" fill="#2456A4">2.1 예열</text>
  <text x="430" y="146" font-size="9" fill="#b0bcc8" text-anchor="end">[제목3]</text>

  <!-- numbered procedure -->
  <g font-size="11.5" fill="#10243f">
    <text x="74" y="170">1. 예열 토치로 150℃까지 가열</text>
    <text x="74" y="190">2. 온도계로 확인</text>
    <text x="74" y="210">3. 기록지에 기입</text>
  </g>

  <!-- caution table -->
  <g font-size="11" fill="#10243f" text-anchor="middle">
    <rect x="62" y="226" width="240" height="44" fill="#fff" stroke="#6B9AD1"/>
    <rect x="62" y="226" width="240" height="18" fill="#DCE8F5" stroke="#6B9AD1"/>
    <line x1="170" y1="226" x2="170" y2="270" stroke="#6B9AD1"/>
    <line x1="62" y1="244" x2="302" y2="244" stroke="#6B9AD1"/>
    <text x="116" y="239" font-weight="700">항목</text><text x="236" y="239" font-weight="700">기준</text>
    <text x="116" y="261">예열온도</text><text x="236" y="261">150±10℃</text>
  </g>
  <text x="62" y="292" font-size="10.5" fill="#9aa6b2">[주의] 표</text>

  <!-- annotations -->
  <g font-size="12">
    <line x1="350" y1="86" x2="466" y2="84" stroke="#2456A4" stroke-width="1.2"/>
    <text x="474" y="78" fill="#2456A4" font-weight="700">제목이 '큰 글씨'가 아니라 스타일로만 구분</text>
    <text x="474" y="94" fill="#3a4a55">단순 추출 시 평평해짐 → 스타일을</text>
    <text x="474" y="110" fill="#3a4a55">#·## 제목 계층으로 복원</text>

    <line x1="240" y1="180" x2="466" y2="160" stroke="#4FA47D" stroke-width="1.3"/>
    <text x="474" y="156" fill="#2f6b50" font-weight="700">절차는 단계 리스트로</text>

    <line x1="302" y1="248" x2="466" y2="200" stroke="#4FA47D" stroke-width="1.3"/>
    <text x="474" y="196" fill="#2f6b50" font-weight="700">주의 표는 행·열로</text>

    <text x="474" y="240" fill="#6b7785" font-weight="700">HWP는 파서가 빈약</text>
    <text x="474" y="256" fill="#3a4a55">텍스트·XML 추출 또는 PDF 변환 경유</text>
  </g>
</svg>
